<svg width="100" height="100" viewBox="0 0 100 100" fill="none" xmlns="http://www.w3.org/2000/svg">
<path d="M41.7158 0.294975C39.6846 0.607475 37.0283 1.46685 35.1338 2.42388L33.7471 3.10748H31.0322C25.4072 3.10748 21.7549 4.4356 18.2783 7.75591C15.6221 10.295 13.9619 13.3614 13.3369 16.8575C12.8877 19.4356 12.8877 52.2481 13.3369 53.1075C13.708 53.8301 14.2744 53.9668 15.9541 53.8301C18.6299 53.5957 19.8994 52.7364 19.5869 51.3497C19.3525 50.2754 18.4736 49.8848 16.9893 50.2559L16.3643 50.4122V34.5528C16.3643 16.6231 16.3447 16.9747 17.8291 13.9278C19.665 10.1387 23.1221 7.50201 27.2432 6.70123C29.626 6.25201 29.626 6.25201 28.415 7.65826C25.4463 11.0372 23.5127 15.3731 23.0049 19.9044C22.8877 20.8809 22.8096 30.0411 22.8096 42.1309C22.8096 64.6504 22.751 63.6739 23.9424 63.9864C24.7627 64.2012 25.1533 64.084 26.54 63.1465C28.2393 62.0332 30.1924 59.9239 31.2666 58.1075L32.126 56.6426L33.2197 57.9707C34.958 60.0997 37.6729 62.3067 39.9775 63.459L40.8369 63.8887L40.7002 64.9043C40.4658 67.0137 39.5674 68.6153 37.9463 69.8653C36.7744 70.7637 35.6807 71.0957 33.1611 71.2911C29.0205 71.6036 26.0127 72.7364 23.083 75.0606C20.29 77.2676 18.1025 80.6465 17.1064 84.2598C16.7354 85.6856 16.6768 86.4278 16.5986 92.3067L16.5205 98.8106L17.1455 99.4161C17.6729 99.9434 17.8486 100.022 18.4541 99.9239C19.8018 99.6895 19.7627 99.8848 19.8994 92.6973C20.0166 85.4708 20.0947 85.0411 21.4424 82.3067C22.3408 80.4708 23.8447 78.6153 25.3486 77.4825C27.6533 75.7637 31.0127 74.5918 33.6299 74.5918C34.6846 74.5918 34.7627 74.6309 36.5596 76.0372C42.1455 80.4122 48.6104 83.1856 55.7002 84.2793C58.6104 84.7286 64.5088 84.7481 67.3408 84.2989C70.9346 83.7325 73.0244 83.1856 73.5322 82.6778C74.4111 81.7989 73.9619 80.2559 72.751 79.9629C72.4971 79.8848 71.5791 80.0215 70.6807 80.2559C65.4268 81.584 59.4697 81.7208 54.0596 80.627C49.1963 79.6504 43.4736 77.1114 39.6455 74.2207L38.5908 73.4395L39.4307 72.9122C41.7744 71.4473 43.3369 68.9668 44.001 65.7247C44.0986 65.2754 44.1963 65.1973 44.5479 65.295C47.7314 66.1739 52.5752 66.1934 55.915 65.334C58.3564 64.6895 61.7158 63.0684 63.7666 61.5254C65.6221 60.1192 67.6338 58.0489 67.8096 57.3262C68.083 56.252 66.9307 55.0801 65.876 55.334C65.6221 55.3926 64.7236 56.1348 63.8838 56.9747C61.4033 59.4551 58.3955 61.2325 55.0947 62.1309C52.79 62.7559 47.9854 62.7559 45.6611 62.1309C41.4424 60.9786 37.8291 58.5567 35.3096 55.2168C32.3799 51.3497 31.4033 48.0098 31.4033 41.9356V38.42L30.8369 37.8536C30.1143 37.1309 29.3135 37.1114 28.5908 37.7754L28.083 38.2442V41.9161C28.083 46.1153 28.3564 48.2637 29.2744 50.92L29.8604 52.7168L29.4307 54.1231C28.9619 55.5684 27.5557 57.9317 26.6377 58.7715L26.1104 59.2403L26.1689 39.4356L26.2275 19.6114L26.7744 17.6583C28.4932 11.3301 33.0635 6.42779 39.1768 4.35748C41.8721 3.43951 43.3564 3.30279 50.3486 3.30279C57.3408 3.30279 58.8252 3.43951 61.5205 4.35748C67.6338 6.42779 72.1846 11.3301 73.9424 17.6973L74.4697 19.6114L74.5674 41.4082C74.665 62.3067 74.6846 63.2442 75.0361 63.6153C75.4658 64.1036 76.0322 64.2207 76.7744 63.9864C77.8291 63.6348 77.8877 63.2637 77.8877 56.7207C77.8877 53.4395 77.9463 50.7637 78.0049 50.7637C78.0635 50.7637 78.4932 51.0762 78.9229 51.4668C80.5635 52.8536 83.376 53.8887 85.5439 53.8887C86.7744 53.8887 87.3408 53.5372 87.5557 52.6778C87.6143 52.4239 87.6338 44.3184 87.6143 34.6504C87.5557 18.6153 87.5166 16.9747 87.2041 15.9004C86.1885 12.4239 85.0166 10.4122 82.5947 7.99029C79.8799 5.27544 78.2393 4.55279 77.2236 5.56841C76.3057 6.48638 76.6963 7.61919 78.2783 8.63482C79.9385 9.72857 81.7549 11.7403 82.7119 13.5567C84.2939 16.6231 84.2158 15.4317 84.2744 33.9473L84.3525 50.4122L83.8057 50.295C81.7354 49.7872 79.2744 47.6192 78.4541 45.5489L77.9854 44.4161L77.8682 31.8184C77.7314 18.2247 77.751 18.4981 76.6182 15.0997C74.7627 9.59185 70.3096 4.65044 64.9189 2.11138C63.0049 1.21294 60.5049 0.470757 58.4736 0.197319C56.2471 -0.115181 43.8447 -0.037056 41.7158 0.294975Z" fill="black"/>
<path d="M58.5938 21.4258C58.3789 21.7383 57.6758 22.7539 57.0508 23.7305C55.7617 25.6836 53.3008 28.1836 51.4258 29.4532C50.7617 29.9024 50.1758 30.2735 50.1367 30.2735C50.0781 30.2735 50 29.8243 49.9219 29.2774C49.5898 26.8555 48.4375 25 47.2656 25C46.6016 25 46.3477 25.2149 44.8242 27.1094C42.4023 30.1368 39.1406 31.9532 35.293 32.4414C33.4375 32.6953 32.9297 32.9688 32.6953 33.8672C32.5391 34.4922 32.9688 35.3711 33.5938 35.7032C34.6094 36.2305 38.1641 35.5664 40.7617 34.375C42.6367 33.4961 43.7891 32.7539 45.4883 31.2696L46.7383 30.1758L46.6016 31.9922C46.4648 33.7696 46.4844 33.8086 46.9922 34.2774C47.7539 34.9805 48.418 34.9024 50.6055 33.7696C53.7695 32.1485 56.0742 30.3125 58.2422 27.7344C59.0039 26.8164 59.668 26.0938 59.7266 26.1133C59.7656 26.1328 60.0586 26.5235 60.3711 26.9727C61.8164 29.1602 64.9414 31.7188 67.6172 32.9102L68.9258 33.4961L68.9453 39.3555C68.9453 44.4727 68.75 47.7149 68.457 48.0274C68.3984 48.0664 67.3633 47.8321 66.1719 47.5C59.3945 45.6055 54.5313 44.9805 47.8711 45.1758C44.1602 45.2735 40.7422 45.6641 38.1836 46.2696C36.6602 46.6407 36.0352 48.1641 37.0117 49.1211C37.5586 49.6875 38.0469 49.7266 39.9414 49.3164C43.0859 48.6524 46.6406 48.3789 50.8789 48.4961C56.4844 48.6524 60.918 49.375 66.2109 51.0157C69.7852 52.1094 70.1172 52.1485 70.7422 51.3868C71.0742 50.9961 71.4062 50.1563 71.6992 48.9844C72.1289 47.2657 72.168 46.7383 72.2266 39.4922C72.3047 30.7227 72.3828 31.1133 70.6641 30.5664C67.1094 29.3946 63.7305 26.6016 62.1289 23.4375C61.0156 21.2696 60.6641 20.8985 59.7461 20.8985C59.1797 20.8985 58.9258 21.0157 58.5938 21.4258Z" fill="black"/>
<path d="M58.2422 67.5C57.0508 68.3203 57.4219 69.7266 59.3359 71.6406C61.2305 73.5352 63.8867 74.6094 66.6211 74.6094C68.5156 74.6094 70.6445 75.1367 72.5586 76.0742C75.5469 77.5391 77.5 79.4727 78.9062 82.3242C80.2539 85.0391 80.3125 85.4688 80.4492 92.7149C80.5859 99.9024 80.5469 99.707 81.8945 99.9414C82.5 100.039 82.6758 99.961 83.2031 99.4336L83.8281 98.8281L83.75 92.3242C83.6719 86.4649 83.6133 85.6836 83.2422 84.2774C82.6758 82.1875 81.3086 79.4727 79.9609 77.7344C76.9336 73.8672 71.6602 71.2891 66.7773 71.2891C65.3125 71.2891 63.7891 70.8203 62.5586 69.9805C61.9922 69.6094 61.5234 69.2383 61.5234 69.1602C61.5234 69.082 61.1328 68.6133 60.6836 68.1055C59.7461 67.0899 59.0625 66.9336 58.2422 67.5Z" fill="black"/>
</svg>
